<svg width="1660" height="600" viewBox="0 0 1660 600" fill="none" xmlns="http://www.w3.org/2000/svg">
<g clip-path="url(#clip0_85_2)">
<rect width="1660" height="600" fill="#7EA310"/>
<path d="M313.766 224.156H299.234C298.053 224.156 297.04 223.299 296.846 222.132L294.546 208.337C290.511 207.489 286.563 206.205 282.77 204.5L272.792 214.319C271.945 215.152 270.622 215.249 269.668 214.551L257.917 206.012C256.963 205.314 256.643 204.03 257.176 202.97L263.425 190.458C260.605 187.353 258.15 183.997 256.096 180.441L242.311 182.515C241.114 182.703 240.01 182.001 239.647 180.868L235.152 167.044C234.788 165.92 235.287 164.694 236.338 164.147L248.753 157.69C248.496 155.428 248.375 153.423 248.375 151.5C248.375 149.577 248.496 147.577 248.758 145.31L236.343 138.858C235.292 138.315 234.793 137.09 235.156 135.961L239.647 122.137C240.01 121.013 241.105 120.306 242.311 120.49L256.106 122.559C256.871 121.231 257.699 119.924 258.571 118.664C259.322 117.555 260.828 117.289 261.933 118.054C263.032 118.814 263.308 120.321 262.548 121.42C261.453 122.999 260.441 124.661 259.53 126.356C259.046 127.252 258.067 127.761 257.036 127.601L243.618 125.586L240.397 135.506L252.487 141.788C253.398 142.258 253.907 143.251 253.771 144.263C253.393 147.034 253.219 149.335 253.219 151.5C253.219 153.665 253.393 155.966 253.766 158.737C253.902 159.749 253.393 160.742 252.483 161.212L240.393 167.499L243.618 177.419L257.036 175.404C258.033 175.239 259.046 175.748 259.53 176.654C261.797 180.868 264.674 184.81 268.089 188.361C268.796 189.097 268.971 190.206 268.51 191.122L262.422 203.299L270.86 209.431L280.571 199.87C281.303 199.153 282.402 198.978 283.328 199.414C287.706 201.541 292.332 203.047 297.084 203.895C298.091 204.074 298.876 204.868 299.045 205.881L301.288 219.312H311.712L313.95 205.886C314.119 204.873 314.904 204.079 315.911 203.9C320.653 203.052 325.289 201.55 329.677 199.419C330.588 198.978 331.702 199.153 332.429 199.875L342.14 209.431L350.573 203.299L344.494 191.122C344.034 190.206 344.204 189.102 344.916 188.361C348.321 184.815 351.203 180.873 353.47 176.654C353.954 175.753 354.918 175.249 355.964 175.404L369.386 177.414L372.607 167.494L360.517 161.212C359.607 160.742 359.098 159.749 359.234 158.737C359.607 155.966 359.781 153.665 359.781 151.5C359.781 149.335 359.607 147.034 359.234 144.263C359.098 143.251 359.607 142.258 360.517 141.788L372.607 135.501L369.382 125.581L355.964 127.596C354.942 127.737 353.954 127.247 353.47 126.346C351.203 122.132 348.326 118.19 344.911 114.639C344.204 113.903 344.029 112.794 344.49 111.878L350.578 99.7009L342.135 93.5687L332.424 103.13C331.697 103.847 330.598 104.031 329.668 103.586C325.289 101.459 320.663 99.9528 315.911 99.1052C314.904 98.9259 314.119 98.1316 313.95 97.1192L311.712 83.6875H301.288L299.05 97.1144C298.881 98.1267 298.096 98.9211 297.089 99.1003C292.347 99.948 287.711 101.45 283.323 103.581C282.412 104.022 281.303 103.847 280.571 103.125L270.86 93.5736L262.422 99.7058L268.501 111.878C269.097 113.075 268.612 114.533 267.416 115.128C266.219 115.729 264.771 115.24 264.17 114.048L257.171 100.035C256.643 98.9744 256.958 97.6908 257.917 96.9933L269.673 88.4489C270.622 87.7466 271.95 87.8531 272.797 88.6814L282.775 98.4948C286.568 96.7898 290.52 95.5062 294.555 94.6586L296.856 80.8636C297.04 79.7011 298.053 78.8438 299.234 78.8438H313.766C314.947 78.8438 315.96 79.7011 316.154 80.8684L318.454 94.6634C322.489 95.5111 326.437 96.7947 330.23 98.4997L340.208 88.6814C341.055 87.8531 342.378 87.7514 343.332 88.4489L355.092 96.9933C356.047 97.6908 356.366 98.9744 355.834 100.035L349.585 112.547C352.404 115.651 354.86 119.008 356.914 122.563L370.699 120.49C371.895 120.306 373 121.009 373.363 122.137L377.858 135.961C378.221 137.085 377.722 138.31 376.671 138.858L364.257 145.315C364.504 147.572 364.625 149.577 364.625 151.5C364.625 153.423 364.504 155.423 364.242 157.69L376.657 164.142C377.708 164.685 378.207 165.91 377.844 167.039L373.353 180.863C372.995 181.991 371.886 182.708 370.689 182.51L356.899 180.441C354.841 183.997 352.39 187.358 349.575 190.458L355.819 202.965C356.347 204.026 356.032 205.309 355.078 206.007L343.322 214.551C342.373 215.249 341.046 215.147 340.198 214.319L330.22 204.505C326.427 206.21 322.475 207.494 318.44 208.341L316.139 222.136C315.96 223.299 314.947 224.156 313.766 224.156ZM306.5 170.875C295.815 170.875 287.125 162.185 287.125 151.5C287.125 140.815 295.815 132.125 306.5 132.125C317.185 132.125 325.875 140.815 325.875 151.5C325.875 162.185 317.185 170.875 306.5 170.875ZM306.5 136.969C298.488 136.969 291.969 143.488 291.969 151.5C291.969 159.512 298.488 166.031 306.5 166.031C314.512 166.031 321.031 159.512 321.031 151.5C321.031 143.488 314.512 136.969 306.5 136.969Z" fill="white" fill-opacity="0.1"/>
<path d="M306.5 190.25C285.134 190.25 267.75 172.866 267.75 151.5C267.75 130.134 285.134 112.75 306.5 112.75C327.866 112.75 345.25 130.134 345.25 151.5C345.25 160.127 342.475 168.298 337.224 175.128C336.41 176.189 334.884 176.382 333.828 175.573C332.768 174.76 332.569 173.239 333.383 172.178C337.98 166.196 340.406 159.051 340.406 151.5C340.406 132.808 325.192 117.594 306.5 117.594C287.808 117.594 272.594 132.808 272.594 151.5C272.594 170.192 287.808 185.406 306.5 185.406C310.511 185.406 314.453 184.704 318.222 183.323C319.476 182.873 320.871 183.508 321.332 184.767C321.792 186.021 321.147 187.412 319.888 187.877C315.587 189.451 311.077 190.25 306.5 190.25Z" fill="white" fill-opacity="0.1"/>
<path d="M328.297 182.984C329.634 182.984 330.719 181.9 330.719 180.562C330.719 179.225 329.634 178.141 328.297 178.141C326.959 178.141 325.875 179.225 325.875 180.562C325.875 181.9 326.959 182.984 328.297 182.984Z" fill="white" fill-opacity="0.1"/>
<path d="M317.219 356.188H308.781C308.095 356.188 307.507 355.69 307.395 355.012L306.059 347.002C303.716 346.51 301.424 345.764 299.222 344.774L293.428 350.475C292.936 350.959 292.168 351.015 291.614 350.61L284.791 345.652C284.237 345.247 284.051 344.502 284.36 343.886L287.988 336.621C286.352 334.818 284.926 332.869 283.733 330.805L275.729 332.008C275.034 332.118 274.393 331.71 274.182 331.052L271.572 323.025C271.361 322.373 271.651 321.661 272.261 321.343L279.469 317.594C279.32 316.281 279.25 315.117 279.25 314C279.25 312.883 279.32 311.722 279.472 310.406L272.264 306.659C271.653 306.344 271.364 305.633 271.575 304.977L274.182 296.951C274.393 296.298 275.028 295.887 275.729 295.994L283.739 297.195C284.183 296.425 284.664 295.665 285.17 294.934C285.606 294.29 286.481 294.135 287.122 294.58C287.761 295.021 287.921 295.896 287.479 296.534C286.844 297.451 286.256 298.416 285.727 299.4C285.446 299.921 284.878 300.216 284.279 300.123L276.488 298.953L274.618 304.713L281.638 308.361C282.167 308.634 282.462 309.21 282.383 309.798C282.164 311.407 282.062 312.743 282.062 314C282.062 315.257 282.164 316.593 282.38 318.202C282.459 318.79 282.164 319.366 281.635 319.639L274.615 323.29L276.488 329.05L284.279 327.88C284.858 327.784 285.446 328.079 285.727 328.605C287.043 331.052 288.714 333.342 290.697 335.403C291.107 335.831 291.209 336.475 290.942 337.006L287.406 344.077L292.306 347.637L297.945 342.086C298.369 341.669 299.008 341.568 299.545 341.821C302.087 343.056 304.773 343.931 307.532 344.423C308.117 344.527 308.573 344.988 308.672 345.576L309.974 353.375H316.026L317.326 345.579C317.424 344.991 317.88 344.53 318.465 344.426C321.218 343.933 323.91 343.062 326.458 341.824C326.987 341.568 327.633 341.669 328.055 342.088L333.694 347.637L338.591 344.077L335.061 337.006C334.794 336.475 334.892 335.833 335.306 335.403C337.283 333.344 338.957 331.055 340.273 328.605C340.554 328.082 341.114 327.79 341.721 327.88L349.515 329.047L351.385 323.287L344.365 319.639C343.836 319.366 343.541 318.79 343.62 318.202C343.836 316.593 343.937 315.257 343.937 314C343.937 312.743 343.836 311.407 343.62 309.798C343.541 309.21 343.836 308.634 344.365 308.361L351.385 304.71L349.512 298.95L341.721 300.12C341.128 300.202 340.554 299.918 340.273 299.395C338.957 296.948 337.286 294.658 335.303 292.597C334.892 292.169 334.791 291.525 335.058 290.994L338.594 283.923L333.692 280.362L328.052 285.914C327.631 286.331 326.992 286.437 326.452 286.179C323.91 284.944 321.224 284.069 318.465 283.577C317.88 283.473 317.424 283.012 317.326 282.424L316.026 274.625H309.974L308.674 282.421C308.576 283.009 308.12 283.47 307.535 283.574C304.782 284.067 302.09 284.938 299.542 286.176C299.013 286.432 298.369 286.331 297.945 285.912L292.306 280.365L287.406 283.926L290.936 290.994C291.282 291.688 291.001 292.535 290.306 292.881C289.611 293.23 288.77 292.946 288.422 292.254L284.357 284.117C284.051 283.501 284.234 282.756 284.791 282.351L291.617 277.39C292.168 276.982 292.938 277.044 293.431 277.525L299.224 283.223C301.427 282.233 303.722 281.487 306.064 280.995L307.4 272.985C307.507 272.31 308.095 271.812 308.781 271.812H317.219C317.905 271.812 318.493 272.31 318.605 272.988L319.941 280.998C322.284 281.49 324.576 282.236 326.778 283.226L332.572 277.525C333.064 277.044 333.832 276.985 334.386 277.39L341.215 282.351C341.769 282.756 341.955 283.501 341.645 284.117L338.017 291.382C339.654 293.185 341.08 295.134 342.272 297.198L350.277 295.994C350.972 295.887 351.613 296.295 351.824 296.951L354.434 304.977C354.645 305.63 354.355 306.342 353.745 306.659L346.536 310.408C346.68 311.719 346.75 312.883 346.75 314C346.75 315.117 346.68 316.278 346.528 317.594L353.736 321.341C354.347 321.656 354.636 322.367 354.425 323.023L351.818 331.049C351.61 331.705 350.966 332.121 350.271 332.006L342.264 330.805C341.069 332.869 339.646 334.821 338.012 336.621L341.637 343.883C341.943 344.499 341.761 345.244 341.207 345.649L334.381 350.61C333.829 351.015 333.059 350.956 332.567 350.475L326.773 344.777C324.571 345.767 322.276 346.513 319.933 347.005L318.597 355.015C318.493 355.69 317.905 356.188 317.219 356.188ZM313 325.25C306.796 325.25 301.75 320.204 301.75 314C301.75 307.796 306.796 302.75 313 302.75C319.204 302.75 324.25 307.796 324.25 314C324.25 320.204 319.204 325.25 313 325.25ZM313 305.562C308.348 305.562 304.562 309.348 304.562 314C304.562 318.652 308.348 322.438 313 322.438C317.652 322.438 321.437 318.652 321.437 314C321.437 309.348 317.652 305.562 313 305.562Z" fill="white" fill-opacity="0.1"/>
<path d="M313 336.5C300.594 336.5 290.5 326.406 290.5 314C290.5 301.594 300.594 291.5 313 291.5C325.406 291.5 335.5 301.594 335.5 314C335.5 319.009 333.888 323.754 330.84 327.719C330.367 328.335 329.481 328.448 328.868 327.978C328.252 327.506 328.137 326.622 328.609 326.007C331.278 322.533 332.688 318.385 332.688 314C332.688 303.147 323.853 294.312 313 294.312C302.147 294.312 293.312 303.147 293.312 314C293.312 324.853 302.147 333.688 313 333.688C315.329 333.688 317.618 333.28 319.806 332.478C320.535 332.217 321.345 332.585 321.612 333.316C321.879 334.045 321.505 334.852 320.774 335.122C318.276 336.036 315.658 336.5 313 336.5Z" fill="white" fill-opacity="0.1"/>
<path d="M325.656 332.281C326.433 332.281 327.062 331.652 327.062 330.875C327.062 330.098 326.433 329.469 325.656 329.469C324.88 329.469 324.25 330.098 324.25 330.875C324.25 331.652 324.88 332.281 325.656 332.281Z" fill="white" fill-opacity="0.1"/>
<path d="M1055.22 239.188H1046.78C1046.09 239.188 1045.51 238.69 1045.39 238.012L1044.06 230.002C1041.72 229.51 1039.42 228.764 1037.22 227.774L1031.43 233.475C1030.94 233.959 1030.17 234.015 1029.61 233.61L1022.79 228.652C1022.24 228.247 1022.05 227.502 1022.36 226.886L1025.99 219.621C1024.35 217.818 1022.93 215.869 1021.73 213.805L1013.73 215.008C1013.03 215.118 1012.39 214.71 1012.18 214.052L1009.57 206.025C1009.36 205.373 1009.65 204.661 1010.26 204.343L1017.47 200.594C1017.32 199.281 1017.25 198.117 1017.25 197C1017.25 195.883 1017.32 194.722 1017.47 193.406L1010.26 189.659C1009.65 189.344 1009.36 188.633 1009.57 187.977L1012.18 179.951C1012.39 179.298 1013.03 178.887 1013.73 178.994L1021.74 180.195C1022.18 179.425 1022.66 178.665 1023.17 177.934C1023.61 177.29 1024.48 177.135 1025.12 177.58C1025.76 178.021 1025.92 178.896 1025.48 179.534C1024.84 180.451 1024.26 181.416 1023.73 182.4C1023.45 182.921 1022.88 183.216 1022.28 183.123L1014.49 181.953L1012.62 187.713L1019.64 191.361C1020.17 191.634 1020.46 192.21 1020.38 192.798C1020.16 194.407 1020.06 195.743 1020.06 197C1020.06 198.257 1020.16 199.593 1020.38 201.202C1020.46 201.79 1020.16 202.366 1019.63 202.639L1012.61 206.29L1014.49 212.05L1022.28 210.88C1022.86 210.784 1023.45 211.079 1023.73 211.605C1025.04 214.052 1026.71 216.342 1028.7 218.403C1029.11 218.831 1029.21 219.475 1028.94 220.006L1025.41 227.077L1030.31 230.637L1035.94 225.086C1036.37 224.669 1037.01 224.568 1037.54 224.821C1040.09 226.056 1042.77 226.931 1045.53 227.423C1046.12 227.527 1046.57 227.988 1046.67 228.576L1047.97 236.375H1054.03L1055.33 228.579C1055.42 227.991 1055.88 227.53 1056.46 227.426C1059.22 226.933 1061.91 226.062 1064.46 224.824C1064.99 224.568 1065.63 224.669 1066.06 225.088L1071.69 230.637L1076.59 227.077L1073.06 220.006C1072.79 219.475 1072.89 218.833 1073.31 218.403C1075.28 216.344 1076.96 214.055 1078.27 211.605C1078.55 211.082 1079.11 210.79 1079.72 210.88L1087.51 212.047L1089.38 206.287L1082.36 202.639C1081.84 202.366 1081.54 201.79 1081.62 201.202C1081.84 199.593 1081.94 198.257 1081.94 197C1081.94 195.743 1081.84 194.407 1081.62 192.798C1081.54 192.21 1081.84 191.634 1082.36 191.361L1089.38 187.71L1087.51 181.95L1079.72 183.12C1079.13 183.202 1078.55 182.918 1078.27 182.395C1076.96 179.948 1075.29 177.658 1073.3 175.597C1072.89 175.169 1072.79 174.525 1073.06 173.994L1076.59 166.923L1071.69 163.362L1066.05 168.914C1065.63 169.331 1064.99 169.437 1064.45 169.179C1061.91 167.944 1059.22 167.069 1056.46 166.577C1055.88 166.473 1055.42 166.012 1055.33 165.424L1054.03 157.625H1047.97L1046.67 165.421C1046.58 166.009 1046.12 166.47 1045.54 166.574C1042.78 167.067 1040.09 167.938 1037.54 169.176C1037.01 169.432 1036.37 169.331 1035.94 168.912L1030.31 163.365L1025.41 166.926L1028.94 173.994C1029.28 174.688 1029 175.535 1028.31 175.881C1027.61 176.23 1026.77 175.946 1026.42 175.254L1022.36 167.117C1022.05 166.501 1022.23 165.756 1022.79 165.351L1029.62 160.39C1030.17 159.982 1030.94 160.044 1031.43 160.525L1037.22 166.223C1039.43 165.233 1041.72 164.487 1044.06 163.995L1045.4 155.985C1045.51 155.31 1046.09 154.812 1046.78 154.812H1055.22C1055.9 154.812 1056.49 155.31 1056.61 155.988L1057.94 163.998C1060.28 164.49 1062.58 165.236 1064.78 166.226L1070.57 160.525C1071.06 160.044 1071.83 159.985 1072.39 160.39L1079.21 165.351C1079.77 165.756 1079.95 166.501 1079.65 167.117L1076.02 174.382C1077.65 176.185 1079.08 178.134 1080.27 180.198L1088.28 178.994C1088.97 178.887 1089.61 179.295 1089.82 179.951L1092.43 187.977C1092.64 188.63 1092.35 189.342 1091.74 189.659L1084.54 193.408C1084.68 194.719 1084.75 195.883 1084.75 197C1084.75 198.117 1084.68 199.278 1084.53 200.594L1091.74 204.341C1092.35 204.656 1092.64 205.367 1092.43 206.023L1089.82 214.049C1089.61 214.705 1088.97 215.121 1088.27 215.006L1080.26 213.805C1079.07 215.869 1077.65 217.821 1076.01 219.621L1079.64 226.883C1079.94 227.499 1079.76 228.244 1079.21 228.649L1072.38 233.61C1071.83 234.015 1071.06 233.956 1070.57 233.475L1064.77 227.777C1062.57 228.767 1060.28 229.513 1057.93 230.005L1056.6 238.015C1056.49 238.69 1055.9 239.188 1055.22 239.188ZM1051 208.25C1044.8 208.25 1039.75 203.204 1039.75 197C1039.75 190.796 1044.8 185.75 1051 185.75C1057.2 185.75 1062.25 190.796 1062.25 197C1062.25 203.204 1057.2 208.25 1051 208.25ZM1051 188.562C1046.35 188.562 1042.56 192.348 1042.56 197C1042.56 201.652 1046.35 205.438 1051 205.438C1055.65 205.438 1059.44 201.652 1059.44 197C1059.44 192.348 1055.65 188.562 1051 188.562Z" fill="white" fill-opacity="0.1"/>
<path d="M1051 219.5C1038.59 219.5 1028.5 209.406 1028.5 197C1028.5 184.594 1038.59 174.5 1051 174.5C1063.41 174.5 1073.5 184.594 1073.5 197C1073.5 202.009 1071.89 206.754 1068.84 210.719C1068.37 211.335 1067.48 211.448 1066.87 210.978C1066.25 210.506 1066.14 209.622 1066.61 209.007C1069.28 205.533 1070.69 201.385 1070.69 197C1070.69 186.147 1061.85 177.312 1051 177.312C1040.15 177.312 1031.31 186.147 1031.31 197C1031.31 207.853 1040.15 216.688 1051 216.688C1053.33 216.688 1055.62 216.28 1057.81 215.478C1058.53 215.217 1059.34 215.585 1059.61 216.316C1059.88 217.045 1059.5 217.852 1058.77 218.122C1056.28 219.036 1053.66 219.5 1051 219.5Z" fill="white" fill-opacity="0.1"/>
<path d="M1063.66 215.281C1064.43 215.281 1065.06 214.652 1065.06 213.875C1065.06 213.098 1064.43 212.469 1063.66 212.469C1062.88 212.469 1062.25 213.098 1062.25 213.875C1062.25 214.652 1062.88 215.281 1063.66 215.281Z" fill="white" fill-opacity="0.1"/>
<path d="M73.6563 428.562H54.3438C52.773 428.562 51.4276 427.423 51.1701 425.872L48.1123 407.538C42.7498 406.411 37.5033 404.705 32.4627 402.439L19.2015 415.488C18.0749 416.595 16.3175 416.724 15.0493 415.797L-0.568107 404.448C-1.83629 403.521 -2.26117 401.815 -1.55304 400.405L6.75133 383.777C3.00471 379.65 -0.259107 375.189 -2.98861 370.464L-21.3097 373.219C-22.8998 373.47 -24.3675 372.537 -24.8504 371.031L-30.8244 352.658C-31.3072 351.164 -30.6441 349.536 -29.2472 348.808L-12.7479 340.227C-13.089 337.221 -13.25 334.556 -13.25 332C-13.25 329.444 -13.089 326.786 -12.7414 323.773L-29.2407 315.198C-30.6377 314.477 -31.3007 312.848 -30.8179 311.348L-24.8504 292.976C-24.3675 291.482 -22.9127 290.542 -21.3097 290.787L-2.97573 293.536C-1.9586 291.772 -0.857793 290.034 0.300957 288.36C1.29877 286.886 3.30083 286.532 4.76858 287.549C6.22989 288.56 6.59683 290.562 5.58614 292.023C4.13127 294.122 2.78583 296.33 1.57558 298.583C0.931831 299.774 -0.368543 300.45 -1.73973 300.237L-19.5716 297.559L-23.8525 310.743L-7.78454 319.093C-6.57429 319.717 -5.89836 321.037 -6.07861 322.382C-6.58073 326.065 -6.81248 329.122 -6.81248 332C-6.81248 334.878 -6.58073 337.935 -6.08504 341.618C-5.90479 342.963 -6.58073 344.283 -7.79098 344.907L-23.859 353.263L-19.5716 366.447L-1.73973 363.769C-0.413605 363.55 0.931831 364.226 1.57558 365.43C4.58833 371.031 8.4122 376.271 12.9506 380.989C13.8905 381.968 14.1223 383.442 13.5107 384.659L5.41877 400.843L16.6329 408.992L29.5401 396.285C30.5121 395.332 31.9735 395.1 33.203 395.68C39.0225 398.506 45.1703 400.508 51.4855 401.634C52.8245 401.873 53.8674 402.928 54.0927 404.274L57.0733 422.125H70.9268L73.9009 404.28C74.1262 402.935 75.1691 401.879 76.5081 401.641C82.8104 400.514 88.9711 398.519 94.8035 395.686C96.0137 395.1 97.4943 395.332 98.46 396.291L111.367 408.992L122.575 400.843L114.496 384.659C113.884 383.442 114.11 381.974 115.056 380.989C119.581 376.277 123.412 371.037 126.424 365.43C127.068 364.233 128.349 363.563 129.74 363.769L147.578 366.441L151.859 353.257L135.791 344.907C134.581 344.283 133.905 342.963 134.085 341.618C134.581 337.935 134.813 334.878 134.813 332C134.813 329.122 134.581 326.065 134.085 322.382C133.905 321.037 134.581 319.717 135.791 319.093L151.859 310.737L147.572 297.553L129.74 300.231C128.381 300.418 127.068 299.767 126.424 298.57C123.412 292.969 119.588 287.729 115.049 283.011C114.11 282.032 113.878 280.558 114.489 279.341L122.581 263.157L111.361 255.007L98.4535 267.715C97.4879 268.668 96.0266 268.912 94.7906 268.32C88.9711 265.494 82.8233 263.492 76.5081 262.366C75.1691 262.127 74.1262 261.072 73.9009 259.726L70.9268 241.875H57.0733L54.0991 259.72C53.8738 261.065 52.831 262.121 51.492 262.359C45.1896 263.486 39.029 265.481 33.1966 268.314C31.9863 268.9 30.5121 268.668 29.5401 267.709L16.6329 255.014L5.41877 263.164L13.4978 279.341C14.2896 280.931 13.6459 282.869 12.0558 283.661C10.4658 284.459 8.54096 283.809 7.74271 282.225L-1.55948 263.602C-2.26117 262.192 -1.84273 260.486 -0.568107 259.559L15.0557 248.203C16.3175 247.27 18.0813 247.411 19.2079 248.512L32.4691 261.554C37.5097 259.288 42.7627 257.582 48.1251 256.456L51.183 238.122C51.4276 236.577 52.773 235.438 54.3438 235.438H73.6563C75.227 235.438 76.5725 236.577 76.83 238.128L79.8878 256.462C85.2502 257.589 90.4968 259.295 95.5373 261.561L108.799 248.512C109.925 247.411 111.683 247.276 112.951 248.203L128.581 259.559C129.849 260.486 130.274 262.192 129.566 263.602L121.262 280.23C125.008 284.356 128.272 288.817 131.002 293.542L149.323 290.787C150.913 290.542 152.38 291.476 152.863 292.976L158.837 311.348C159.32 312.842 158.657 314.471 157.26 315.198L140.761 323.779C141.089 326.779 141.25 329.444 141.25 332C141.25 334.556 141.089 337.214 140.741 340.227L157.241 348.802C158.638 349.523 159.301 351.152 158.818 352.652L152.85 371.024C152.374 372.524 150.9 373.477 149.31 373.213L130.982 370.464C128.246 375.189 124.989 379.657 121.249 383.777L129.547 400.398C130.248 401.808 129.83 403.514 128.562 404.441L112.938 415.797C111.676 416.724 109.912 416.589 108.786 415.488L95.5244 402.446C90.4839 404.712 85.2309 406.418 79.8685 407.544L76.8106 425.878C76.5725 427.423 75.227 428.562 73.6563 428.562ZM64 357.75C49.7989 357.75 38.25 346.201 38.25 332C38.25 317.799 49.7989 306.25 64 306.25C78.2011 306.25 89.75 317.799 89.75 332C89.75 346.201 78.2011 357.75 64 357.75ZM64 312.688C53.3524 312.688 44.6875 321.352 44.6875 332C44.6875 342.648 53.3524 351.312 64 351.312C74.6476 351.312 83.3125 342.648 83.3125 332C83.3125 321.352 74.6476 312.688 64 312.688Z" fill="white" fill-opacity="0.1"/>
<path d="M64 383.5C35.6042 383.5 12.5 360.396 12.5 332C12.5 303.604 35.6042 280.5 64 280.5C92.3958 280.5 115.5 303.604 115.5 332C115.5 343.465 111.811 354.325 104.833 363.402C103.752 364.812 101.724 365.069 100.32 363.994C98.9106 362.913 98.6466 360.891 99.7281 359.482C105.837 351.531 109.062 342.036 109.062 332C109.062 307.158 88.8423 286.938 64 286.938C39.1577 286.938 18.9375 307.158 18.9375 332C18.9375 356.842 39.1577 377.062 64 377.062C69.3303 377.062 74.5704 376.129 79.5788 374.294C81.2461 373.696 83.1001 374.539 83.7116 376.213C84.3232 377.88 83.467 379.728 81.7932 380.346C76.0767 382.438 70.0834 383.5 64 383.5Z" fill="white" fill-opacity="0.1"/>
<path d="M92.9688 373.844C94.7464 373.844 96.1875 372.403 96.1875 370.625C96.1875 368.847 94.7464 367.406 92.9688 367.406C91.1911 367.406 89.75 368.847 89.75 370.625C89.75 372.403 91.1911 373.844 92.9688 373.844Z" fill="white" fill-opacity="0.1"/>
<path d="M1331.22 450.188H1316.78C1315.61 450.188 1314.6 449.336 1314.41 448.176L1312.12 434.47C1308.11 433.628 1304.19 432.352 1300.42 430.658L1290.51 440.413C1289.67 441.241 1288.35 441.337 1287.41 440.644L1275.73 432.16C1274.78 431.467 1274.47 430.192 1274.99 429.138L1281.2 416.707C1278.4 413.622 1275.96 410.287 1273.92 406.755L1260.22 408.814C1259.04 409.002 1257.94 408.304 1257.58 407.178L1253.11 393.443C1252.75 392.327 1253.25 391.109 1254.29 390.565L1266.63 384.15C1266.37 381.903 1266.25 379.911 1266.25 378C1266.25 376.089 1266.37 374.102 1266.63 371.85L1254.3 365.439C1253.25 364.9 1252.76 363.683 1253.12 362.561L1257.58 348.827C1257.94 347.71 1259.03 347.007 1260.22 347.19L1273.93 349.245C1274.69 347.927 1275.51 346.627 1276.38 345.376C1277.13 344.274 1278.62 344.009 1279.72 344.77C1280.81 345.525 1281.09 347.022 1280.33 348.114C1279.24 349.683 1278.24 351.334 1277.33 353.018C1276.85 353.909 1275.88 354.414 1274.85 354.255L1261.52 352.253L1258.32 362.109L1270.34 368.351C1271.24 368.818 1271.75 369.804 1271.61 370.81C1271.24 373.563 1271.06 375.849 1271.06 378C1271.06 380.151 1271.24 382.437 1271.61 385.19C1271.74 386.196 1271.24 387.182 1270.33 387.649L1258.32 393.896L1261.52 403.752L1274.85 401.75C1275.85 401.586 1276.85 402.091 1277.33 402.991C1279.59 407.178 1282.44 411.096 1285.84 414.623C1286.54 415.355 1286.71 416.457 1286.26 417.366L1280.21 429.465L1288.59 435.557L1298.24 426.058C1298.97 425.345 1300.06 425.172 1300.98 425.605C1305.33 427.718 1309.92 429.215 1314.64 430.057C1315.65 430.235 1316.43 431.024 1316.59 432.03L1318.82 445.375H1329.18L1331.4 432.035C1331.57 431.029 1332.35 430.24 1333.35 430.062C1338.06 429.219 1342.67 427.728 1347.03 425.61C1347.93 425.172 1349.04 425.345 1349.76 426.062L1359.41 435.557L1367.79 429.465L1361.75 417.366C1361.29 416.457 1361.46 415.359 1362.17 414.623C1365.55 411.1 1368.41 407.183 1370.67 402.991C1371.15 402.096 1372.11 401.596 1373.15 401.75L1386.48 403.747L1389.68 393.891L1377.67 387.649C1376.76 387.182 1376.26 386.196 1376.39 385.19C1376.76 382.437 1376.94 380.151 1376.94 378C1376.94 375.849 1376.76 373.563 1376.39 370.81C1376.26 369.804 1376.76 368.818 1377.67 368.351L1389.68 362.104L1386.48 352.248L1373.15 354.25C1372.13 354.39 1371.15 353.904 1370.67 353.009C1368.41 348.822 1365.56 344.904 1362.16 341.377C1361.46 340.645 1361.29 339.543 1361.74 338.634L1367.79 326.535L1359.41 320.442L1349.76 329.942C1349.03 330.655 1347.94 330.837 1347.02 330.395C1342.67 328.282 1338.07 326.785 1333.35 325.943C1332.35 325.765 1331.57 324.976 1331.4 323.97L1329.18 310.625H1318.82L1316.6 323.965C1316.43 324.971 1315.65 325.76 1314.65 325.938C1309.94 326.781 1305.33 328.272 1300.97 330.39C1300.07 330.828 1298.97 330.655 1298.24 329.938L1288.59 320.447L1280.21 326.54L1286.25 338.634C1286.84 339.822 1286.36 341.271 1285.17 341.863C1283.98 342.46 1282.54 341.974 1281.94 340.79L1274.99 326.867C1274.47 325.813 1274.78 324.538 1275.73 323.845L1287.41 315.356C1288.35 314.658 1289.67 314.764 1290.51 315.587L1300.43 325.337C1304.2 323.643 1308.12 322.367 1312.13 321.525L1314.42 307.819C1314.6 306.664 1315.61 305.812 1316.78 305.812H1331.22C1332.39 305.812 1333.4 306.664 1333.59 307.824L1335.88 321.53C1339.89 322.372 1343.81 323.648 1347.58 325.342L1357.49 315.587C1358.33 314.764 1359.65 314.663 1360.59 315.356L1372.28 323.845C1373.23 324.538 1373.54 325.813 1373.02 326.867L1366.81 339.298C1369.61 342.383 1372.05 345.718 1374.09 349.25L1387.78 347.19C1388.97 347.007 1390.07 347.705 1390.43 348.827L1394.9 362.561C1395.26 363.678 1394.76 364.896 1393.72 365.439L1381.38 371.854C1381.63 374.097 1381.75 376.089 1381.75 378C1381.75 379.911 1381.63 381.898 1381.37 384.15L1393.7 390.561C1394.75 391.1 1395.24 392.317 1394.88 393.439L1390.42 407.173C1390.07 408.295 1388.96 409.007 1387.78 408.81L1374.07 406.755C1372.03 410.287 1369.59 413.627 1366.8 416.707L1373 429.133C1373.53 430.187 1373.21 431.462 1372.26 432.155L1360.58 440.644C1359.64 441.337 1358.32 441.236 1357.48 440.413L1347.57 430.663C1343.8 432.357 1339.87 433.633 1335.86 434.475L1333.58 448.181C1333.4 449.336 1332.39 450.188 1331.22 450.188ZM1324 397.25C1313.38 397.25 1304.75 388.616 1304.75 378C1304.75 367.384 1313.38 358.75 1324 358.75C1334.62 358.75 1343.25 367.384 1343.25 378C1343.25 388.616 1334.62 397.25 1324 397.25ZM1324 363.562C1316.04 363.562 1309.56 370.04 1309.56 378C1309.56 385.96 1316.04 392.438 1324 392.438C1331.96 392.438 1338.44 385.96 1338.44 378C1338.44 370.04 1331.96 363.562 1324 363.562Z" fill="white" fill-opacity="0.1"/>
<path d="M1324 416.5C1302.77 416.5 1285.5 399.228 1285.5 378C1285.5 356.772 1302.77 339.5 1324 339.5C1345.23 339.5 1362.5 356.772 1362.5 378C1362.5 386.571 1359.74 394.69 1354.53 401.475C1353.72 402.529 1352.2 402.722 1351.15 401.918C1350.1 401.11 1349.9 399.598 1350.71 398.545C1355.28 392.601 1357.69 385.503 1357.69 378C1357.69 359.429 1342.57 344.312 1324 344.312C1305.43 344.312 1290.31 359.429 1290.31 378C1290.31 396.571 1305.43 411.688 1324 411.688C1327.98 411.688 1331.9 410.99 1335.65 409.618C1336.89 409.171 1338.28 409.801 1338.74 411.052C1339.19 412.299 1338.55 413.68 1337.3 414.142C1333.03 415.706 1328.55 416.5 1324 416.5Z" fill="white" fill-opacity="0.1"/>
<path d="M1345.66 409.281C1346.99 409.281 1348.06 408.204 1348.06 406.875C1348.06 405.546 1346.99 404.469 1345.66 404.469C1344.33 404.469 1343.25 405.546 1343.25 406.875C1343.25 408.204 1344.33 409.281 1345.66 409.281Z" fill="white" fill-opacity="0.1"/>
<path d="M1026.8 513.469H1004.2C1002.37 513.469 1000.79 512.136 1000.49 510.321L996.913 488.872C990.639 487.554 984.501 485.558 978.604 482.907L963.09 498.173C961.772 499.468 959.716 499.619 958.232 498.534L939.961 485.257C938.478 484.172 937.981 482.176 938.809 480.527L948.525 461.074C944.141 456.246 940.323 451.027 937.13 445.499L915.696 448.723C913.836 449.016 912.118 447.924 911.554 446.162L904.565 424.668C904 422.921 904.776 421.015 906.41 420.164L925.712 410.125C925.313 406.608 925.125 403.49 925.125 400.5C925.125 397.51 925.313 394.4 925.72 390.875L906.417 380.843C904.783 380 904.007 378.095 904.572 376.34L911.554 354.846C912.118 353.098 913.821 351.999 915.696 352.285L937.145 355.501C938.335 353.437 939.623 351.404 940.978 349.446C942.146 347.721 944.488 347.307 946.205 348.497C947.914 349.679 948.344 352.021 947.161 353.731C945.459 356.186 943.885 358.769 942.469 361.405C941.716 362.799 940.195 363.589 938.591 363.341L917.729 360.208L912.721 375.632L931.519 385.4C932.935 386.13 933.726 387.674 933.515 389.248C932.927 393.556 932.656 397.134 932.656 400.5C932.656 403.866 932.927 407.444 933.507 411.752C933.718 413.326 932.927 414.87 931.511 415.6L912.713 425.376L917.729 440.8L938.591 437.667C940.142 437.411 941.716 438.201 942.469 439.61C945.994 446.162 950.468 452.292 955.777 457.813C956.877 458.958 957.148 460.682 956.432 462.106L946.966 481.039L960.085 490.574L975.185 475.707C976.322 474.592 978.032 474.321 979.47 474.999C986.279 478.305 993.471 480.648 1000.86 481.966C1002.43 482.244 1003.65 483.479 1003.91 485.053L1007.4 505.938H1023.6L1027.08 485.061C1027.35 483.487 1028.57 482.252 1030.13 481.973C1037.51 480.655 1044.71 478.32 1051.54 475.007C1052.95 474.321 1054.69 474.592 1055.81 475.715L1070.91 490.574L1084.03 481.039L1074.58 462.106C1073.86 460.682 1074.12 458.965 1075.23 457.813C1080.52 452.3 1085.01 446.17 1088.53 439.61C1089.28 438.209 1090.78 437.426 1092.41 437.667L1113.28 440.792L1118.29 425.368L1099.49 415.6C1098.07 414.87 1097.28 413.326 1097.49 411.752C1098.07 407.444 1098.34 403.866 1098.34 400.5C1098.34 397.134 1098.07 393.556 1097.49 389.248C1097.28 387.674 1098.07 386.13 1099.49 385.4L1118.29 375.624L1113.27 360.2L1092.41 363.333C1090.82 363.552 1089.28 362.791 1088.53 361.39C1085.01 354.838 1080.53 348.708 1075.22 343.187C1074.12 342.042 1073.85 340.318 1074.57 338.894L1084.03 319.961L1070.91 310.426L1055.81 325.293C1054.68 326.408 1052.97 326.694 1051.52 326.001C1044.71 322.695 1037.52 320.352 1030.13 319.034C1028.57 318.756 1027.35 317.521 1027.08 315.947L1023.6 295.062H1007.4L1003.92 315.939C1003.65 317.513 1002.43 318.748 1000.87 319.027C993.494 320.345 986.286 322.68 979.463 325.993C978.047 326.679 976.322 326.408 975.185 325.285L960.085 310.434L946.966 319.968L956.417 338.894C957.344 340.755 956.591 343.022 954.73 343.948C952.87 344.882 950.618 344.121 949.684 342.268L938.802 320.48C937.981 318.831 938.47 316.835 939.961 315.751L958.24 302.466C959.716 301.374 961.78 301.539 963.097 302.827L978.612 318.086C984.509 315.435 990.654 313.439 996.928 312.121L1000.51 290.672C1000.79 288.864 1002.37 287.531 1004.2 287.531H1026.8C1028.63 287.531 1030.21 288.864 1030.51 290.679L1034.09 312.128C1040.36 313.446 1046.5 315.442 1052.4 318.093L1067.91 302.827C1069.23 301.539 1071.28 301.381 1072.77 302.466L1091.05 315.751C1092.54 316.835 1093.03 318.831 1092.21 320.48L1082.49 339.934C1086.87 344.761 1090.69 349.98 1093.89 355.508L1115.32 352.285C1117.18 351.999 1118.9 353.091 1119.46 354.846L1126.45 376.34C1127.02 378.087 1126.24 379.992 1124.61 380.843L1105.3 390.883C1105.69 394.392 1105.87 397.51 1105.87 400.5C1105.87 403.49 1105.69 406.6 1105.28 410.125L1124.58 420.157C1126.22 421 1126.99 422.905 1126.43 424.66L1119.45 446.154C1118.89 447.909 1117.16 449.024 1115.3 448.715L1093.86 445.499C1090.66 451.027 1086.85 456.254 1082.48 461.074L1092.18 480.52C1093 482.169 1092.51 484.165 1091.03 485.249L1072.75 498.534C1071.28 499.619 1069.21 499.461 1067.89 498.173L1052.38 482.914C1046.48 485.565 1040.34 487.561 1034.06 488.879L1030.49 510.328C1030.21 512.136 1028.63 513.469 1026.8 513.469ZM1015.5 430.625C998.886 430.625 985.375 417.114 985.375 400.5C985.375 383.886 998.886 370.375 1015.5 370.375C1032.11 370.375 1045.62 383.886 1045.62 400.5C1045.62 417.114 1032.11 430.625 1015.5 430.625ZM1015.5 377.906C1003.04 377.906 992.906 388.043 992.906 400.5C992.906 412.957 1003.04 423.094 1015.5 423.094C1027.96 423.094 1038.09 412.957 1038.09 400.5C1038.09 388.043 1027.96 377.906 1015.5 377.906Z" fill="white" fill-opacity="0.1"/>
<path d="M1015.5 460.75C982.28 460.75 955.25 433.72 955.25 400.5C955.25 367.28 982.28 340.25 1015.5 340.25C1048.72 340.25 1075.75 367.28 1075.75 400.5C1075.75 413.913 1071.43 426.618 1063.27 437.237C1062.01 438.887 1059.63 439.188 1057.99 437.93C1056.34 436.665 1056.03 434.3 1057.3 432.651C1064.45 423.35 1068.22 412.241 1068.22 400.5C1068.22 371.437 1044.56 347.781 1015.5 347.781C986.437 347.781 962.781 371.437 962.781 400.5C962.781 429.563 986.437 453.219 1015.5 453.219C1021.74 453.219 1027.87 452.127 1033.73 449.98C1035.68 449.28 1037.85 450.267 1038.56 452.225C1039.28 454.175 1038.27 456.337 1036.32 457.06C1029.63 459.507 1022.62 460.75 1015.5 460.75Z" fill="white" fill-opacity="0.1"/>
<path d="M1049.39 449.453C1051.47 449.453 1053.16 447.767 1053.16 445.688C1053.16 443.608 1051.47 441.922 1049.39 441.922C1047.31 441.922 1045.62 443.608 1045.62 445.688C1045.62 447.767 1047.31 449.453 1049.39 449.453Z" fill="white" fill-opacity="0.1"/>
<path d="M404.906 413.062H393.094C392.133 413.062 391.31 412.366 391.153 411.417L389.282 400.203C386.002 399.514 382.793 398.47 379.71 397.084L371.599 405.065C370.91 405.743 369.835 405.821 369.059 405.254L359.507 398.313C358.731 397.746 358.471 396.702 358.904 395.84L363.984 385.669C361.692 383.145 359.696 380.417 358.026 377.527L346.82 379.212C345.848 379.365 344.95 378.794 344.655 377.873L341.001 366.635C340.705 365.722 341.111 364.726 341.965 364.281L352.057 359.032C351.848 357.193 351.75 355.563 351.75 354C351.75 352.437 351.848 350.811 352.061 348.968L341.969 343.723C341.115 343.282 340.709 342.286 341.005 341.368L344.655 330.131C344.95 329.217 345.84 328.642 346.82 328.792L358.034 330.473C358.656 329.395 359.33 328.331 360.038 327.308C360.649 326.406 361.873 326.189 362.771 326.812C363.665 327.43 363.889 328.654 363.271 329.548C362.381 330.832 361.558 332.182 360.818 333.56C360.424 334.289 359.629 334.702 358.79 334.572L347.883 332.934L345.265 340.998L355.093 346.105C355.833 346.487 356.247 347.294 356.136 348.117C355.829 350.37 355.687 352.24 355.687 354C355.687 355.76 355.829 357.63 356.132 359.883C356.243 360.706 355.829 361.513 355.089 361.895L345.261 367.006L347.883 375.07L358.79 373.432C359.601 373.298 360.424 373.711 360.818 374.447C362.661 377.873 365 381.078 367.776 383.964C368.35 384.563 368.492 385.465 368.118 386.209L363.169 396.108L370.028 401.092L377.923 393.32C378.517 392.737 379.411 392.595 380.163 392.95C383.722 394.678 387.483 395.903 391.345 396.592C392.164 396.738 392.802 397.383 392.94 398.206L394.763 409.125H403.237L405.056 398.21C405.194 397.387 405.832 396.742 406.651 396.596C410.505 395.907 414.274 394.686 417.841 392.954C418.581 392.595 419.487 392.737 420.077 393.324L427.972 401.092L434.827 396.108L429.886 386.209C429.512 385.465 429.649 384.567 430.228 383.964C432.996 381.082 435.339 377.877 437.182 374.447C437.576 373.715 438.359 373.306 439.21 373.432L450.121 375.066L452.739 367.002L442.911 361.895C442.171 361.513 441.757 360.706 441.868 359.883C442.171 357.63 442.312 355.76 442.312 354C442.312 352.24 442.171 350.37 441.868 348.117C441.757 347.294 442.171 346.487 442.911 346.105L452.739 340.994L450.117 332.93L439.21 334.568C438.379 334.683 437.576 334.285 437.182 333.553C435.339 330.127 433 326.922 430.224 324.036C429.649 323.437 429.508 322.535 429.882 321.791L434.831 311.892L427.968 306.907L420.073 314.68C419.483 315.263 418.589 315.412 417.833 315.05C414.274 313.322 410.513 312.097 406.651 311.408C405.832 311.262 405.194 310.617 405.056 309.794L403.237 298.875H394.763L392.944 309.79C392.806 310.613 392.168 311.258 391.349 311.404C387.495 312.093 383.726 313.314 380.159 315.046C379.419 315.405 378.517 315.263 377.923 314.676L370.028 306.911L363.169 311.896L368.11 321.791C368.595 322.764 368.201 323.949 367.228 324.433C366.256 324.922 365.078 324.524 364.59 323.555L358.9 312.164C358.471 311.302 358.727 310.258 359.507 309.691L369.063 302.746C369.835 302.175 370.914 302.261 371.603 302.935L379.714 310.912C382.797 309.526 386.01 308.482 389.29 307.793L391.16 296.579C391.31 295.634 392.133 294.938 393.094 294.938H404.906C405.867 294.938 406.69 295.634 406.847 296.583L408.718 307.797C411.998 308.486 415.207 309.53 418.29 310.916L426.401 302.935C427.09 302.261 428.165 302.179 428.941 302.746L438.501 309.691C439.277 310.258 439.537 311.302 439.103 312.164L434.024 322.335C436.316 324.859 438.312 327.587 439.981 330.477L451.188 328.792C452.16 328.642 453.058 329.213 453.353 330.131L457.007 341.368C457.303 342.282 456.897 343.278 456.043 343.723L445.951 348.972C446.152 350.807 446.25 352.437 446.25 354C446.25 355.563 446.152 357.189 445.939 359.032L456.031 364.277C456.885 364.718 457.291 365.714 456.995 366.632L453.345 377.869C453.054 378.787 452.152 379.369 451.18 379.208L439.97 377.527C438.296 380.417 436.304 383.149 434.016 385.669L439.092 395.836C439.521 396.698 439.265 397.742 438.489 398.309L428.933 405.254C428.161 405.821 427.082 405.739 426.393 405.065L418.282 397.088C415.199 398.474 411.986 399.518 408.706 400.207L406.836 411.421C406.69 412.366 405.867 413.062 404.906 413.062ZM399 369.75C390.314 369.75 383.25 362.686 383.25 354C383.25 345.314 390.314 338.25 399 338.25C407.686 338.25 414.75 345.314 414.75 354C414.75 362.686 407.686 369.75 399 369.75ZM399 342.188C392.487 342.188 387.187 347.487 387.187 354C387.187 360.513 392.487 365.812 399 365.812C405.513 365.812 410.812 360.513 410.812 354C410.812 347.487 405.513 342.188 399 342.188Z" fill="white" fill-opacity="0.1"/>
<path d="M399 385.5C381.632 385.5 367.5 371.368 367.5 354C367.5 336.632 381.632 322.5 399 322.5C416.368 322.5 430.5 336.632 430.5 354C430.5 361.013 428.244 367.655 423.976 373.207C423.314 374.069 422.074 374.227 421.215 373.569C420.353 372.908 420.192 371.671 420.853 370.809C424.59 365.946 426.562 360.139 426.562 354C426.562 338.805 414.195 326.438 399 326.438C383.805 326.438 371.438 338.805 371.438 354C371.438 369.195 383.805 381.562 399 381.562C402.26 381.562 405.465 380.992 408.529 379.869C409.549 379.503 410.683 380.019 411.057 381.043C411.431 382.063 410.907 383.193 409.883 383.571C406.387 384.85 402.721 385.5 399 385.5Z" fill="white" fill-opacity="0.1"/>
<path d="M416.719 379.594C417.806 379.594 418.688 378.712 418.688 377.625C418.688 376.538 417.806 375.656 416.719 375.656C415.631 375.656 414.75 376.538 414.75 377.625C414.75 378.712 415.631 379.594 416.719 379.594Z" fill="white" fill-opacity="0.1"/>
<path d="M625.547 404.969H589.453C586.518 404.969 584.003 402.839 583.522 399.94L577.807 365.675C567.785 363.569 557.979 360.381 548.559 356.146L523.775 380.533C521.669 382.603 518.385 382.843 516.014 381.111L486.827 359.9C484.456 358.167 483.662 354.979 484.986 352.344L500.506 321.267C493.504 313.555 487.404 305.218 482.303 296.387L448.062 301.536C445.09 302.005 442.347 300.261 441.445 297.445L430.28 263.108C429.377 260.317 430.617 257.273 433.227 255.914L464.063 239.876C463.426 234.257 463.125 229.276 463.125 224.5C463.125 219.724 463.426 214.755 464.076 209.124L433.239 193.098C430.629 191.751 429.389 188.707 430.292 185.904L441.445 151.567C442.347 148.775 445.066 147.019 448.062 147.476L482.327 152.613C484.228 149.317 486.285 146.068 488.451 142.94C490.316 140.185 494.057 139.523 496.801 141.424C499.532 143.313 500.217 147.055 498.328 149.786C495.609 153.708 493.095 157.835 490.833 162.046C489.63 164.272 487.2 165.535 484.637 165.138L451.31 160.133L443.31 184.773L473.34 200.377C475.601 201.544 476.865 204.011 476.528 206.525C475.589 213.407 475.156 219.122 475.156 224.5C475.156 229.878 475.589 235.593 476.516 242.475C476.853 244.989 475.589 247.456 473.328 248.623L443.298 264.239L451.31 288.879L484.637 283.874C487.115 283.465 489.63 284.728 490.833 286.978C496.464 297.445 503.61 307.239 512.092 316.058C513.849 317.887 514.282 320.642 513.139 322.916L498.016 353.162L518.974 368.394L543.097 344.644C544.913 342.863 547.645 342.43 549.943 343.513C560.819 348.795 572.309 352.537 584.111 354.642C586.614 355.087 588.563 357.06 588.984 359.575L594.554 392.938H620.446L626.004 359.587C626.425 357.072 628.374 355.099 630.877 354.654C642.655 352.549 654.169 348.819 665.07 343.525C667.331 342.43 670.099 342.863 671.903 344.656L696.026 368.394L716.972 353.162L701.873 322.916C700.73 320.642 701.151 317.899 702.92 316.058C711.378 307.251 718.536 297.458 724.167 286.978C725.37 284.74 727.764 283.489 730.363 283.874L763.702 288.867L771.703 264.227L741.673 248.623C739.411 247.456 738.147 244.989 738.484 242.475C739.411 235.593 739.844 229.878 739.844 224.5C739.844 219.122 739.411 213.407 738.484 206.525C738.147 204.011 739.411 201.544 741.673 200.377L771.703 184.761L763.69 160.121L730.363 165.126C727.825 165.475 725.37 164.26 724.167 162.022C718.536 151.555 711.39 141.761 702.908 132.942C701.151 131.113 700.718 128.358 701.861 126.084L716.984 95.8378L696.014 80.6062L671.891 104.356C670.087 106.137 667.355 106.594 665.045 105.487C654.169 100.205 642.679 96.4634 630.877 94.358C628.374 93.9128 626.425 91.9397 626.004 89.4252L620.446 56.0625H594.554L588.996 89.4131C588.575 91.9277 586.626 93.9008 584.123 94.3459C572.345 96.4514 560.831 100.181 549.931 105.475C547.669 106.57 544.913 106.137 543.097 104.344L518.974 80.6183L498.016 95.8498L513.115 126.084C514.595 129.056 513.392 132.678 510.42 134.157C507.448 135.649 503.851 134.434 502.359 131.474L484.974 96.668C483.662 94.0331 484.444 90.8448 486.827 89.1123L516.026 67.8892C518.385 66.1447 521.681 66.4094 523.787 68.4667L548.571 92.842C557.991 88.607 567.809 85.4187 577.831 83.3133L583.546 49.0483C584.003 46.1608 586.518 44.0312 589.453 44.0312H625.547C628.483 44.0312 630.997 46.1608 631.478 49.0603L637.193 83.3253C647.215 85.4308 657.021 88.6191 666.441 92.8541L691.225 68.4667C693.331 66.4094 696.615 66.1567 698.986 67.8892L728.198 89.1123C730.568 90.8448 731.362 94.0331 730.038 96.668L714.518 127.745C721.52 135.457 727.62 143.794 732.721 152.625L766.962 147.476C769.934 147.019 772.677 148.763 773.579 151.567L784.744 185.904C785.647 188.695 784.408 191.739 781.797 193.098L750.961 209.136C751.574 214.743 751.875 219.724 751.875 224.5C751.875 229.276 751.574 234.245 750.925 239.876L781.761 255.902C784.371 257.249 785.611 260.293 784.708 263.096L773.555 297.433C772.665 300.237 769.91 302.017 766.938 301.524L732.685 296.387C727.572 305.218 721.484 313.567 714.494 321.267L730.002 352.332C731.314 354.967 730.532 358.155 728.161 359.888L698.962 381.111C696.603 382.843 693.307 382.591 691.201 380.533L666.417 356.158C656.997 360.393 647.179 363.581 637.157 365.687L631.442 399.952C630.997 402.839 628.483 404.969 625.547 404.969ZM607.5 272.625C580.959 272.625 559.375 251.041 559.375 224.5C559.375 197.959 580.959 176.375 607.5 176.375C634.041 176.375 655.625 197.959 655.625 224.5C655.625 251.041 634.041 272.625 607.5 272.625ZM607.5 188.406C587.6 188.406 571.406 204.6 571.406 224.5C571.406 244.4 587.6 260.594 607.5 260.594C627.4 260.594 643.594 244.4 643.594 224.5C643.594 204.6 627.4 188.406 607.5 188.406Z" fill="white" fill-opacity="0.1"/>
<path d="M607.5 320.75C554.43 320.75 511.25 277.57 511.25 224.5C511.25 171.43 554.43 128.25 607.5 128.25C660.57 128.25 703.75 171.43 703.75 224.5C703.75 245.928 696.856 266.224 683.814 283.188C681.793 285.823 678.003 286.305 675.38 284.295C672.745 282.274 672.252 278.496 674.273 275.861C685.691 261.003 691.719 243.257 691.719 224.5C691.719 178.071 653.929 140.281 607.5 140.281C561.071 140.281 523.281 178.071 523.281 224.5C523.281 270.929 561.071 308.719 607.5 308.719C617.462 308.719 627.255 306.974 636.616 303.545C639.732 302.426 643.197 304.003 644.34 307.131C645.483 310.247 643.882 313.7 640.754 314.855C630.071 318.765 618.87 320.75 607.5 320.75Z" fill="white" fill-opacity="0.1"/>
<path d="M661.641 302.703C664.963 302.703 667.656 300.01 667.656 296.688C667.656 293.365 664.963 290.672 661.641 290.672C658.318 290.672 655.625 293.365 655.625 296.688C655.625 300.01 658.318 302.703 661.641 302.703Z" fill="white" fill-opacity="0.1"/>
<g clip-path="url(#clip1_85_2)">
<path d="M871.34 -72.0672L896.236 -63.4532C898.261 -62.7526 899.487 -60.6836 899.127 -58.5688L894.891 -33.5707C901.301 -29.7266 907.304 -25.1874 912.791 -20.018L935.706 -30.9243C937.652 -31.8491 939.975 -31.2312 941.196 -29.4706L956.266 -7.87441C957.488 -6.11376 957.274 -3.72514 955.733 -2.2236L937.611 15.5075C940.6 22.498 942.818 29.7046 944.229 37.0132L969.075 41.6332C971.237 42.0188 972.713 43.8768 972.663 46.034L972.17 72.3826C972.126 74.5232 970.545 76.327 968.419 76.6417L943.323 80.3444C942.422 84.372 941.44 87.8794 940.3 91.1739C939.161 94.4684 937.767 97.824 935.975 101.553L953.42 119.965C954.899 121.518 955.027 123.913 953.736 125.631L937.848 146.654C936.56 148.364 934.265 148.926 932.308 147.896L909.9 136.175C907.802 137.995 905.608 139.745 903.367 141.386C901.424 142.841 898.685 142.404 897.246 140.439C895.813 138.484 896.233 135.739 898.188 134.306C901 132.25 903.719 130.004 906.284 127.639C907.645 126.391 909.623 126.1 911.296 126.985L933.088 138.391L944.487 123.305L927.498 105.375C926.216 104.03 925.934 102.027 926.766 100.373C929.056 95.8505 930.718 92.012 932.002 88.3026C933.285 84.5931 934.351 80.548 935.354 75.5801C935.722 73.7653 937.182 72.3656 939.02 72.1005L963.46 68.4958L963.814 49.5881L939.633 45.0867C937.826 44.7773 936.393 43.3059 936.1 41.4669C934.714 32.9034 932.122 24.4428 928.376 16.3357C927.601 14.6551 927.96 12.6514 929.291 11.3557L946.941 -5.89756L936.12 -21.4054L913.813 -10.7811C912.135 -9.98645 910.148 -10.3395 908.821 -11.6348C902.58 -17.8735 895.548 -23.1965 887.909 -27.4655C886.29 -28.3698 885.416 -30.1959 885.726 -32.0308L889.846 -56.3721L871.987 -62.5512L860.194 -40.8742C859.304 -39.2403 857.488 -38.3445 855.656 -38.6347C847.029 -39.9934 838.197 -40.1687 829.415 -39.1188C827.594 -38.9035 825.789 -39.8626 824.972 -41.5298L813.998 -63.6598L795.916 -58.1529L799.112 -33.6868C799.357 -31.8456 798.412 -30.054 796.753 -29.2064C788.817 -25.1505 781.542 -20.1039 775.158 -14.2196C773.794 -12.9632 771.844 -12.6716 770.143 -13.5573L748.34 -24.9577L736.941 -9.8717L753.93 8.05836C755.211 9.40312 755.494 11.4058 754.662 13.0598C752.38 17.5855 750.717 21.4239 749.434 25.1334C748.151 28.8428 747.085 32.888 746.082 37.8559C745.714 39.6707 744.254 41.0704 742.416 41.3355L717.975 44.9402L717.622 63.8479L741.803 68.3493C743.638 68.7145 745.04 70.1384 745.336 71.969C746.722 80.5326 749.314 88.9931 753.06 97.1003C753.835 98.7809 753.476 100.785 752.145 102.08L734.495 119.334L745.325 134.844L767.631 124.22C769.301 123.422 771.294 123.759 772.623 125.074C778.864 131.312 785.896 136.635 793.535 140.904C795.155 141.809 796.028 143.635 795.718 145.47L791.59 169.808L809.449 175.987L821.242 154.31C822.132 152.676 823.948 151.78 825.78 152.071C834.407 153.429 843.239 153.605 852.02 152.555C853.842 152.339 855.639 153.296 856.464 154.966L867.44 177.087L885.532 171.583L882.333 147.126C882.021 144.723 883.715 142.512 886.118 142.2C888.524 141.881 890.715 143.577 891.038 145.975L894.722 174.132C894.998 176.262 893.698 178.274 891.641 178.901L866.436 186.571C864.393 187.211 862.182 186.242 861.221 184.32L849.943 161.593C842.435 162.266 834.902 162.122 827.487 161.182L815.368 183.452C814.363 185.335 812.121 186.204 810.096 185.503L785.2 176.889C783.175 176.189 781.949 174.12 782.309 172.005L786.545 147.007C780.135 143.163 774.132 138.623 768.645 133.454L745.73 144.36C743.787 145.277 741.461 144.667 740.24 142.907L725.156 121.296C723.935 119.536 724.148 117.147 725.689 115.646L743.811 97.9144C740.822 90.9239 738.604 83.7173 737.193 76.4087L712.347 71.7887C710.188 71.3948 708.712 69.5368 708.759 67.3879L709.253 41.0393C709.296 38.8987 710.878 37.0949 713.003 36.7802L738.099 33.0775C739.014 29.0639 739.996 25.5566 741.135 22.262C742.275 18.9675 743.669 15.612 745.461 11.8833L728.016 -6.52954C726.537 -8.08205 726.409 -10.4773 727.7 -12.1955L743.587 -33.2179C744.871 -34.9389 747.196 -35.5096 749.128 -34.4601L771.528 -22.742C777.162 -27.6128 783.354 -31.9191 790.013 -35.5619L786.73 -60.6899C786.454 -62.8203 787.755 -64.8327 789.803 -65.4621L815.009 -73.132C817.049 -73.7642 819.262 -72.8032 820.223 -70.8817L831.501 -48.1539C839.009 -48.8267 846.542 -48.6828 853.957 -47.7433L866.076 -70.0136C867.073 -71.899 869.315 -72.7678 871.34 -72.0672ZM852.203 23.5238C870.51 29.858 880.246 49.8967 873.912 68.2033C867.578 86.5099 847.539 96.2463 829.233 89.9122C810.926 83.578 801.19 63.5393 807.524 45.2327C813.858 26.9261 833.897 17.1897 852.203 23.5238ZM832.104 81.6136C845.83 86.3628 860.864 79.0578 865.614 65.332C870.363 51.6062 863.058 36.5715 849.332 31.8223C835.606 27.0732 820.572 34.3782 815.822 48.104C811.073 61.8298 818.378 76.8644 832.104 81.6136Z" fill="white" fill-opacity="0.1"/>
<path d="M863.689 -9.67042C900.293 2.99501 919.772 43.0837 907.106 79.6886C894.441 116.293 854.352 135.772 817.747 123.106C781.142 110.441 761.664 70.3522 774.33 33.7473C779.443 18.9676 789.042 6.61322 802.087 -1.9752C804.11 -3.3102 806.838 -2.73767 808.168 -0.725861C809.503 1.29712 808.942 4.02059 806.919 5.35558C795.497 12.8794 787.104 23.6812 782.628 36.6186C771.548 68.6427 788.595 103.727 820.619 114.808C852.643 125.888 887.727 108.841 898.808 76.8172C909.888 44.7931 892.841 9.70858 860.817 -1.37187C853.946 -3.74933 846.775 -4.8833 839.5 -4.75211C837.084 -4.72402 835.07 -6.63808 835.028 -9.06848C834.983 -11.4906 836.911 -13.4904 839.344 -13.5405C847.647 -13.6878 855.846 -12.3838 863.689 -9.67042Z" fill="white" fill-opacity="0.1"/>
</g>
<path d="M1531.81 281.125H1502.19C1499.78 281.125 1497.71 279.377 1497.32 276.997L1492.63 248.873C1484.4 247.145 1476.35 244.528 1468.62 241.052L1448.28 261.069C1446.55 262.767 1443.86 262.965 1441.91 261.543L1417.95 244.133C1416.01 242.711 1415.36 240.094 1416.44 237.932L1429.18 212.425C1423.43 206.095 1418.43 199.251 1414.24 192.003L1386.14 196.23C1383.7 196.615 1381.45 195.183 1380.71 192.872L1371.54 164.689C1370.8 162.398 1371.82 159.9 1373.96 158.784L1399.27 145.62C1398.75 141.009 1398.5 136.92 1398.5 133C1398.5 129.08 1398.75 125.001 1399.28 120.38L1373.97 107.226C1371.83 106.12 1370.81 103.622 1371.55 101.321L1380.71 73.1377C1381.45 70.8467 1383.68 69.405 1386.14 69.7802L1414.26 73.9969C1415.82 71.2911 1417.51 68.6249 1419.29 66.0574C1420.82 63.796 1423.89 63.2529 1426.14 64.8131C1428.38 66.3635 1428.94 69.4346 1427.39 71.6762C1425.16 74.8955 1423.1 78.2826 1421.24 81.7389C1420.25 83.5658 1418.26 84.6026 1416.16 84.2767L1388.8 80.1687L1382.24 100.393L1406.88 113.201C1408.74 114.158 1409.78 116.183 1409.5 118.247C1408.73 123.895 1408.38 128.586 1408.38 133C1408.38 137.414 1408.73 142.105 1409.49 147.753C1409.77 149.817 1408.73 151.841 1406.87 152.799L1382.23 165.617L1388.8 185.841L1416.16 181.733C1418.19 181.397 1420.25 182.434 1421.24 184.281C1425.86 192.872 1431.73 200.91 1438.69 208.149C1440.13 209.65 1440.49 211.911 1439.55 213.778L1427.14 238.603L1444.34 251.105L1464.14 231.612C1465.63 230.15 1467.87 229.795 1469.76 230.684C1478.69 235.019 1488.12 238.09 1497.8 239.818C1499.86 240.183 1501.46 241.803 1501.8 243.867L1506.37 271.25H1527.63L1532.19 243.877C1532.53 241.813 1534.13 240.193 1536.19 239.828C1545.85 238.1 1555.31 235.038 1564.25 230.693C1566.11 229.795 1568.38 230.15 1569.86 231.622L1589.66 251.105L1606.85 238.603L1594.46 213.778C1593.52 211.911 1593.87 209.66 1595.32 208.149C1602.26 200.92 1608.14 192.882 1612.76 184.281C1613.75 182.444 1615.71 181.417 1617.84 181.733L1645.21 185.831L1651.77 165.607L1627.13 152.799C1625.27 151.841 1624.23 149.817 1624.51 147.753C1625.27 142.105 1625.63 137.414 1625.63 133C1625.63 128.586 1625.27 123.895 1624.51 118.247C1624.23 116.183 1625.27 114.158 1627.13 113.201L1651.77 100.383L1645.2 80.1589L1617.84 84.2669C1615.76 84.5532 1613.75 83.5559 1612.76 81.7191C1608.14 73.1279 1602.27 65.0896 1595.31 57.8513C1593.87 56.3503 1593.51 54.0889 1594.45 52.2225L1606.86 27.3968L1589.65 14.895L1569.85 34.3882C1568.37 35.8497 1566.13 36.225 1564.23 35.3165C1555.31 30.9814 1545.87 27.9103 1536.19 26.1821C1534.13 25.8168 1532.53 24.1972 1532.19 22.1334L1527.63 -5.25H1506.37L1501.81 22.1235C1501.47 24.1874 1499.87 25.8069 1497.81 26.1723C1488.15 27.9004 1478.69 30.9616 1469.75 35.3066C1467.89 36.2052 1465.63 35.8498 1464.14 34.3784L1444.34 14.9049L1427.14 27.4066L1439.53 52.2225C1440.75 54.6616 1439.76 57.634 1437.32 58.8486C1434.88 60.0731 1431.93 59.0757 1430.7 56.6465L1416.43 28.0781C1415.36 25.9155 1416 23.2986 1417.95 21.8766L1441.92 4.45713C1443.86 3.02525 1446.56 3.2425 1448.29 4.93112L1468.63 24.9379C1476.36 21.4619 1484.42 18.845 1492.65 17.1169L1497.34 -11.0071C1497.71 -13.3771 1499.78 -15.125 1502.19 -15.125H1531.81C1534.22 -15.125 1536.29 -13.3771 1536.68 -10.9973L1541.37 17.1267C1549.6 18.8549 1557.65 21.4718 1565.38 24.9478L1585.72 4.93112C1587.45 3.2425 1590.14 3.03513 1592.09 4.45713L1616.07 21.8766C1618.01 23.2986 1618.66 25.9155 1617.58 28.0781L1604.84 53.5853C1610.59 59.9151 1615.59 66.7585 1619.78 74.0068L1647.88 69.7802C1650.32 69.405 1652.57 70.8369 1653.31 73.1377L1662.48 101.321C1663.22 103.612 1662.2 106.11 1660.06 107.226L1634.75 120.39C1635.25 124.991 1635.5 129.08 1635.5 133C1635.5 136.92 1635.25 140.999 1634.72 145.62L1660.03 158.774C1662.17 159.88 1663.19 162.378 1662.45 164.679L1653.29 192.862C1652.56 195.163 1650.3 196.625 1647.86 196.22L1619.75 192.003C1615.55 199.251 1610.56 206.105 1604.82 212.425L1617.55 237.922C1618.62 240.084 1617.98 242.701 1616.04 244.123L1592.07 261.543C1590.13 262.965 1587.43 262.757 1585.7 261.069L1565.36 241.062C1557.63 244.538 1549.57 247.155 1541.34 248.883L1536.65 277.007C1536.29 279.377 1534.22 281.125 1531.81 281.125ZM1517 172.5C1495.22 172.5 1477.5 154.784 1477.5 133C1477.5 111.216 1495.22 93.5 1517 93.5C1538.78 93.5 1556.5 111.216 1556.5 133C1556.5 154.784 1538.78 172.5 1517 172.5ZM1517 103.375C1500.67 103.375 1487.38 116.667 1487.38 133C1487.38 149.333 1500.67 162.625 1517 162.625C1533.33 162.625 1546.63 149.333 1546.63 133C1546.63 116.667 1533.33 103.375 1517 103.375Z" fill="white" fill-opacity="0.1"/>
<path d="M1517 212C1473.44 212 1438 176.559 1438 133C1438 89.4414 1473.44 54 1517 54C1560.56 54 1596 89.4414 1596 133C1596 150.587 1590.34 167.247 1579.64 181.17C1577.98 183.333 1574.87 183.728 1572.71 182.079C1570.55 180.42 1570.15 177.319 1571.81 175.156C1581.18 162.961 1586.12 148.395 1586.12 133C1586.12 94.8924 1555.11 63.875 1517 63.875C1478.89 63.875 1447.88 94.8924 1447.88 133C1447.88 171.108 1478.89 202.125 1517 202.125C1525.18 202.125 1533.21 200.693 1540.9 197.879C1543.46 196.96 1546.3 198.254 1547.24 200.822C1548.18 203.379 1546.86 206.213 1544.29 207.161C1535.53 210.371 1526.33 212 1517 212Z" fill="white" fill-opacity="0.1"/>
<path d="M1561.44 197.188C1564.16 197.188 1566.38 194.977 1566.38 192.25C1566.38 189.523 1564.16 187.312 1561.44 187.312C1558.71 187.312 1556.5 189.523 1556.5 192.25C1556.5 194.977 1558.71 197.188 1561.44 197.188Z" fill="white" fill-opacity="0.1"/>
<path d="M1430.28 -17.712L1430.39 3.6504C1430.4 5.38787 1429.14 6.88261 1427.43 7.17629L1407.17 10.6632C1405.95 16.6012 1404.09 22.4144 1401.62 28.0029L1416.12 42.5973C1417.36 43.8371 1417.51 45.7804 1416.49 47.1885L1404.03 64.5282C1403.01 65.9363 1401.12 66.416 1399.56 65.6407L1381.12 56.5497C1376.58 60.7175 1371.66 64.3532 1366.45 67.3993L1369.6 87.6494C1369.89 89.4068 1368.86 91.0357 1367.2 91.5783L1346.91 98.2911C1345.26 98.8337 1343.46 98.1096 1342.64 96.5685L1333.06 78.3668C1329.73 78.7614 1326.79 78.9546 1323.96 78.9692C1321.13 78.9837 1318.19 78.8209 1314.86 78.4535L1305.47 96.753C1304.68 98.3023 1302.88 99.045 1301.22 98.5195L1280.86 92.0233C1279.21 91.4977 1278.16 89.8938 1278.42 88.1193L1281.35 67.8237C1279.4 66.7086 1277.47 65.5009 1275.61 64.2287C1273.97 63.1334 1273.57 60.9208 1274.69 59.2915C1275.8 57.6693 1278.01 57.252 1279.63 58.3616C1281.96 59.959 1284.41 61.4346 1286.91 62.7605C1288.23 63.4658 1288.99 64.9003 1288.76 66.4183L1285.9 86.1581L1300.51 90.8183L1309.65 72.9972C1310.34 71.6549 1311.79 70.8997 1313.28 71.0914C1317.36 71.6259 1320.74 71.8648 1323.92 71.8484C1327.11 71.832 1330.49 71.5582 1334.56 70.9889C1336.04 70.7818 1337.51 71.522 1338.21 72.8571L1347.54 90.583L1362.1 85.7654L1359.04 66.0561C1358.79 64.5904 1359.53 63.0983 1360.85 62.3794C1367.03 59.0149 1372.81 54.7553 1378 49.7083C1379.08 48.6631 1380.71 48.3983 1382.06 49.0678L1400 57.9264L1408.95 45.4755L1394.82 31.2708C1393.76 30.201 1393.5 28.5859 1394.13 27.2225C1397.23 20.7692 1399.41 13.9575 1400.62 6.96555C1400.87 5.48307 1402.03 4.32347 1403.52 4.06658L1423.25 0.667889L1423.17 -14.656L1403.42 -17.8441C1401.93 -18.0857 1400.75 -19.2332 1400.48 -20.713C1399.2 -27.6778 1396.96 -34.481 1393.79 -40.9163C1393.14 -42.2517 1393.38 -43.8908 1394.44 -44.9644L1408.41 -59.3139L1399.34 -71.6648L1381.48 -62.6359C1380.14 -61.9525 1378.51 -62.1934 1377.42 -63.2345C1372.18 -68.2136 1366.36 -72.4206 1360.14 -75.7211C1358.81 -76.4264 1358.07 -77.8396 1358.29 -79.3789L1361.14 -99.1258L1346.53 -103.786L1337.39 -85.9649C1336.7 -84.6226 1335.25 -83.8674 1333.76 -84.0591C1329.68 -84.5864 1326.3 -84.8253 1323.12 -84.8089C1319.93 -84.7925 1316.55 -84.5187 1312.48 -83.9494C1310.99 -83.7424 1309.53 -84.4826 1308.83 -85.8177L1299.5 -103.544L1284.94 -98.7259L1288 -79.0166C1288.22 -77.5152 1287.51 -76.0589 1286.19 -75.34C1280.01 -71.9755 1274.23 -67.7159 1269.04 -62.6688C1267.96 -61.6236 1266.33 -61.3589 1264.98 -62.0284L1247.04 -70.887L1238.08 -58.429L1252.21 -44.2242C1253.27 -43.1616 1253.55 -41.5465 1252.91 -40.176C1249.81 -33.7227 1247.63 -26.9109 1246.42 -19.919C1246.17 -18.4365 1245.01 -17.2769 1243.52 -17.02L1223.79 -13.6285L1223.87 1.69548L1243.62 4.88355C1245.11 5.12511 1246.29 6.27266 1246.56 7.75242C1247.84 14.7172 1250.08 21.5205 1253.25 27.9557C1253.9 29.2911 1253.66 30.9231 1252.6 32.0038L1238.63 46.3534L1247.71 58.7113L1265.56 49.6825C1267.31 48.7976 1269.46 49.4986 1270.35 51.2529C1271.24 53.0072 1270.53 55.14 1268.78 56.032L1248.23 66.4277C1246.68 67.2119 1244.79 66.7588 1243.76 65.3542L1231.11 48.1368C1230.07 46.7464 1230.21 44.7945 1231.43 43.5421L1245.78 28.7989C1243.24 23.2363 1241.32 17.4354 1240.05 11.5102L1219.75 8.2324C1218.04 7.97061 1216.77 6.48886 1216.76 4.75139L1216.65 -16.611C1216.64 -18.3484 1217.9 -19.8432 1219.61 -20.1368L1239.87 -23.6237C1241.09 -29.5618 1242.95 -35.3749 1245.42 -40.9634L1230.91 -55.5579C1229.69 -56.7977 1229.53 -58.7409 1230.55 -60.149L1243.02 -77.503C1244.04 -78.9111 1245.92 -79.3908 1247.49 -78.6155L1265.93 -69.5245C1270.47 -73.6924 1275.39 -77.328 1280.6 -80.3742L1277.45 -100.624C1277.17 -102.382 1278.19 -104.011 1279.85 -104.553L1300.14 -111.266C1301.78 -111.809 1303.59 -111.084 1304.4 -109.543L1313.99 -91.3417C1317.31 -91.7219 1320.25 -91.9151 1323.08 -91.9297C1325.91 -91.9443 1328.85 -91.7814 1332.18 -91.4141L1341.57 -109.714C1342.36 -111.263 1344.16 -112.006 1345.82 -111.48L1366.18 -104.984C1367.84 -104.465 1368.9 -102.84 1368.62 -101.08L1365.68 -80.7913C1370.93 -77.7919 1375.89 -74.2143 1380.47 -70.1006L1398.8 -79.3741C1400.36 -80.1583 1402.25 -79.7051 1403.28 -78.3076L1415.93 -61.0902C1416.96 -59.6998 1416.83 -57.748 1415.61 -56.4956L1401.26 -41.7524C1403.8 -36.1897 1405.71 -30.3889 1406.99 -24.4637L1427.29 -21.1858C1429 -20.9312 1430.27 -19.4494 1430.28 -17.712ZM1352 -6.62708C1352.08 9.08137 1339.37 21.9219 1323.67 22.0029C1307.96 22.0838 1295.12 9.37497 1295.04 -6.33348C1294.96 -22.0419 1307.66 -34.8825 1323.37 -34.9634C1339.08 -35.0444 1351.92 -22.3355 1352 -6.62708ZM1302.16 -6.37018C1302.22 5.4076 1311.85 14.9428 1323.63 14.8821C1335.41 14.8214 1344.94 5.1874 1344.88 -6.59038C1344.82 -18.3682 1335.19 -27.9033 1323.41 -27.8426C1311.63 -27.7819 1302.1 -18.148 1302.16 -6.37018Z" fill="white" fill-opacity="0.1"/>
<path d="M1380.49 -6.77395C1380.65 24.6358 1355.22 50.3241 1323.81 50.4859C1292.4 50.6478 1266.72 25.223 1266.55 -6.18676C1266.39 -37.5965 1291.82 -63.2848 1323.23 -63.4467C1335.91 -63.512 1347.94 -59.4937 1358.02 -51.8265C1359.59 -50.6383 1359.88 -48.3967 1358.7 -46.8382C1357.51 -45.2726 1355.28 -44.9691 1353.71 -46.1574C1344.89 -52.8697 1334.36 -56.3831 1323.26 -56.3259C1295.78 -56.1842 1273.53 -33.7026 1273.67 -6.22346C1273.82 21.2557 1296.3 43.5068 1323.78 43.3652C1351.26 43.2235 1373.51 20.7419 1373.37 -6.73725C1373.33 -12.6333 1372.27 -18.4243 1370.21 -23.9538C1369.54 -25.7946 1370.46 -27.8502 1372.31 -28.5363C1374.15 -29.2222 1376.2 -28.2857 1376.9 -26.4378C1379.24 -20.1265 1380.45 -13.5031 1380.49 -6.77395Z" fill="white" fill-opacity="0.1"/>
</g>
<defs>
<clipPath id="clip0_85_2">
<rect width="1660" height="600" fill="white"/>
</clipPath>
<clipPath id="clip1_85_2">
<rect width="281" height="281" fill="white" transform="translate(927.553 235.436) rotate(-160.914)"/>
</clipPath>
</defs>
</svg>
